# xmcd
#
# Track frame offsets:
#	150
#	15647
#	33611
#	47357
#	65690
#	84326
#	100703
#	116793
#	133329
#	149409
#	165538
#	184768
#	201108
#	216465
#	232833
#	248372
#	265352
#	282861
#
# Disc length: 3962 seconds
#
# Revision: 2
# Processed by: cddbd v1.5.2PL0 Copyright (c) Steve Scherf et al.
# Submitted via: audiograbber 1.83.01
#
DISCID=020f7812
DTITLE=Various Artist - Promo Only Country Radio 2 - 2009
DYEAR=2009
DGENRE=Country
TTITLE0=Danielle Peck - Can't Behave
TTITLE1=Chuck Wicks - Man Of The House
TTITLE2=Trace Adkins - Marry For Money
TTITLE3=Keith Anderson - She Could've Been Mine
TTITLE4=Tim McGraw - Nothin' To Die For
TTITLE5=Justin Moore - Small Town USA
TTITLE6=Mark Chestnutt - Things To Do In Wichita
TTITLE7=Darryl Worley - Sounds Like Life To Me
TTITLE8=Holly Williams - Keep The Change
TTITLE9=Trailer Choir - What Would You Say
TTITLE10=Carrie Underwood - I Told You So
TTITLE11=Jim Van Fleet and The Reign - Living Florida Country
TTITLE12=Trent Tomlinson - That's How It Still Oughta Be
TTITLE13=Craig Morgan - God Must Really Love Me
TTITLE14=Pat Roper - Now We're Getting Somewhere
TTITLE15=Ashleigh Flynn - The 7th Sea
TTITLE16=Stephanie Chapman - Long Hot Summer
TTITLE17=Jeff Leonard - I'll Take My Chances Loving You
EXTD=
EXTT0=
EXTT1=
EXTT2=
EXTT3=
EXTT4=
EXTT5=
EXTT6=
EXTT7=
EXTT8=
EXTT9=
EXTT10=
EXTT11=
EXTT12=
EXTT13=
EXTT14=
EXTT15=
EXTT16=
EXTT17=
PLAYORDER=
